<?xml version="1.0" encoding="UTF-8"?>
<svg xmlns="http://www.w3.org/2000/svg" version="1.1" width="100" height="100" viewBox="0 0 100 100"><rect x="0" y="0" width="100" height="100" fill="#fefefe"/><g transform="scale(2.703)"><g transform="translate(4,4)"><path fill-rule="evenodd" d="M9 0L9 1L8 1L8 3L9 3L9 4L8 4L8 8L6 8L6 9L5 9L5 10L4 10L4 8L3 8L3 10L2 10L2 8L0 8L0 9L1 9L1 12L2 12L2 13L1 13L1 15L0 15L0 17L1 17L1 16L2 16L2 17L4 17L4 18L3 18L3 19L2 19L2 21L3 21L3 20L4 20L4 21L5 21L5 20L6 20L6 21L7 21L7 20L8 20L8 18L6 18L6 19L5 19L5 17L4 17L4 15L5 15L5 16L6 16L6 17L9 17L9 18L10 18L10 22L9 22L9 21L8 21L8 23L9 23L9 25L8 25L8 26L9 26L9 25L10 25L10 26L11 26L11 28L9 28L9 27L8 27L8 29L11 29L11 28L12 28L12 29L14 29L14 28L12 28L12 24L14 24L14 25L13 25L13 27L15 27L15 28L16 28L16 27L15 27L15 24L17 24L17 23L18 23L18 24L19 24L19 23L18 23L18 19L19 19L19 16L20 16L20 17L22 17L22 19L23 19L23 18L24 18L24 19L25 19L25 20L19 20L19 22L20 22L20 27L18 27L18 26L19 26L19 25L17 25L17 29L18 29L18 28L20 28L20 29L21 29L21 28L20 28L20 27L21 27L21 25L22 25L22 27L23 27L23 28L22 28L22 29L24 29L24 28L25 28L25 29L28 29L28 27L29 27L29 26L28 26L28 25L29 25L29 23L26 23L26 24L25 24L25 20L26 20L26 19L25 19L25 18L24 18L24 17L25 17L25 16L26 16L26 15L27 15L27 17L26 17L26 18L27 18L27 19L29 19L29 18L28 18L28 15L29 15L29 14L27 14L27 13L29 13L29 12L28 12L28 8L26 8L26 10L24 10L24 11L26 11L26 13L25 13L25 12L23 12L23 11L22 11L22 12L21 12L21 13L20 13L20 15L16 15L16 17L17 17L17 18L16 18L16 19L15 19L15 20L14 20L14 18L13 18L13 20L12 20L12 19L11 19L11 18L10 18L10 17L12 17L12 16L13 16L13 17L15 17L15 15L13 15L13 12L12 12L12 13L10 13L10 14L9 14L9 15L7 15L7 14L5 14L5 13L9 13L9 11L11 11L11 10L12 10L12 9L11 9L11 8L10 8L10 7L11 7L11 6L12 6L12 8L13 8L13 6L14 6L14 8L15 8L15 9L14 9L14 10L16 10L16 12L17 12L17 11L20 11L20 10L19 10L19 9L17 9L17 8L19 8L19 6L20 6L20 9L21 9L21 3L19 3L19 2L16 2L16 1L18 1L18 0L16 0L16 1L14 1L14 0L12 0L12 1L11 1L11 2L9 2L9 1L10 1L10 0ZM19 0L19 1L20 1L20 2L21 2L21 1L20 1L20 0ZM14 2L14 3L16 3L16 4L15 4L15 8L17 8L17 7L18 7L18 4L17 4L17 3L16 3L16 2ZM12 3L12 4L9 4L9 5L10 5L10 6L9 6L9 7L10 7L10 6L11 6L11 5L12 5L12 6L13 6L13 3ZM16 4L16 5L17 5L17 4ZM19 4L19 5L20 5L20 4ZM16 6L16 7L17 7L17 6ZM8 8L8 9L6 9L6 10L5 10L5 12L3 12L3 11L4 11L4 10L3 10L3 11L2 11L2 12L3 12L3 13L2 13L2 15L4 15L4 13L5 13L5 12L7 12L7 11L9 11L9 10L10 10L10 8ZM22 8L22 10L23 10L23 9L25 9L25 8ZM16 9L16 10L17 10L17 9ZM6 10L6 11L7 11L7 10ZM26 10L26 11L27 11L27 10ZM14 11L14 12L15 12L15 11ZM17 13L17 14L18 14L18 13ZM21 13L21 14L24 14L24 15L22 15L22 17L23 17L23 16L25 16L25 15L26 15L26 14L25 14L25 13ZM11 14L11 15L9 15L9 16L12 16L12 14ZM6 15L6 16L7 16L7 15ZM20 15L20 16L21 16L21 15ZM0 18L0 19L1 19L1 18ZM17 18L17 19L18 19L18 18ZM20 18L20 19L21 19L21 18ZM6 19L6 20L7 20L7 19ZM0 20L0 21L1 21L1 20ZM13 20L13 21L14 21L14 22L15 22L15 23L14 23L14 24L15 24L15 23L17 23L17 22L16 22L16 21L17 21L17 20L15 20L15 21L14 21L14 20ZM28 20L28 22L29 22L29 20ZM21 21L21 24L24 24L24 21ZM22 22L22 23L23 23L23 22ZM10 23L10 24L11 24L11 23ZM27 24L27 25L26 25L26 26L25 26L25 28L27 28L27 27L28 27L28 26L27 26L27 25L28 25L28 24ZM23 26L23 27L24 27L24 26ZM0 0L0 7L7 7L7 0ZM1 1L1 6L6 6L6 1ZM2 2L2 5L5 5L5 2ZM22 0L22 7L29 7L29 0ZM23 1L23 6L28 6L28 1ZM24 2L24 5L27 5L27 2ZM0 22L0 29L7 29L7 22ZM1 23L1 28L6 28L6 23ZM2 24L2 27L5 27L5 24Z" fill="#000000"/></g></g></svg>
