<?xml version="1.0" encoding="UTF-8"?>
<svg xmlns="http://www.w3.org/2000/svg" version="1.1" width="100" height="100" viewBox="0 0 100 100"><rect x="0" y="0" width="100" height="100" fill="#fefefe"/><g transform="scale(2.703)"><g transform="translate(4,4)"><path fill-rule="evenodd" d="M10 0L10 2L11 2L11 0ZM12 0L12 1L13 1L13 2L12 2L12 4L14 4L14 8L13 8L13 9L12 9L12 7L13 7L13 5L11 5L11 6L10 6L10 4L11 4L11 3L8 3L8 4L9 4L9 5L8 5L8 7L9 7L9 8L6 8L6 9L5 9L5 8L0 8L0 9L1 9L1 10L0 10L0 11L1 11L1 12L0 12L0 15L1 15L1 17L0 17L0 21L1 21L1 17L3 17L3 16L4 16L4 19L3 19L3 21L4 21L4 19L5 19L5 20L6 20L6 21L8 21L8 23L9 23L9 24L8 24L8 29L10 29L10 28L11 28L11 26L10 26L10 25L9 25L9 24L10 24L10 23L11 23L11 25L12 25L12 26L13 26L13 27L12 27L12 29L13 29L13 28L14 28L14 29L19 29L19 28L23 28L23 27L24 27L24 28L25 28L25 29L27 29L27 28L28 28L28 26L29 26L29 23L28 23L28 22L29 22L29 21L28 21L28 19L27 19L27 20L25 20L25 19L26 19L26 18L25 18L25 17L22 17L22 16L23 16L23 15L22 15L22 16L21 16L21 14L20 14L20 13L22 13L22 14L26 14L26 13L28 13L28 14L27 14L27 16L26 16L26 15L24 15L24 16L26 16L26 17L28 17L28 18L29 18L29 16L28 16L28 14L29 14L29 13L28 13L28 12L29 12L29 11L28 11L28 10L29 10L29 9L28 9L28 8L27 8L27 9L28 9L28 10L26 10L26 8L25 8L25 9L24 9L24 8L23 8L23 9L22 9L22 8L19 8L19 5L20 5L20 7L21 7L21 4L19 4L19 3L17 3L17 4L16 4L16 3L15 3L15 2L16 2L16 1L15 1L15 0L14 0L14 1L13 1L13 0ZM18 0L18 2L19 2L19 1L21 1L21 0ZM8 1L8 2L9 2L9 1ZM13 2L13 3L14 3L14 4L15 4L15 5L16 5L16 6L15 6L15 8L18 8L18 6L17 6L17 5L19 5L19 4L17 4L17 5L16 5L16 4L15 4L15 3L14 3L14 2ZM20 2L20 3L21 3L21 2ZM9 6L9 7L10 7L10 6ZM11 6L11 7L12 7L12 6ZM16 6L16 7L17 7L17 6ZM10 8L10 9L9 9L9 11L8 11L8 12L7 12L7 11L6 11L6 12L7 12L7 13L6 13L6 14L7 14L7 15L4 15L4 14L5 14L5 13L3 13L3 12L4 12L4 10L5 10L5 9L3 9L3 10L1 10L1 11L2 11L2 16L3 16L3 15L4 15L4 16L7 16L7 17L6 17L6 18L5 18L5 19L6 19L6 20L7 20L7 19L6 19L6 18L8 18L8 16L9 16L9 18L10 18L10 19L9 19L9 20L8 20L8 21L9 21L9 22L14 22L14 23L12 23L12 25L14 25L14 26L18 26L18 25L19 25L19 26L20 26L20 27L22 27L22 26L25 26L25 25L22 25L22 26L20 26L20 23L19 23L19 24L18 24L18 23L16 23L16 24L14 24L14 23L15 23L15 22L18 22L18 21L20 21L20 18L21 18L21 19L22 19L22 20L24 20L24 19L23 19L23 18L22 18L22 17L20 17L20 16L19 16L19 15L20 15L20 14L19 14L19 15L17 15L17 16L19 16L19 17L13 17L13 16L15 16L15 14L18 14L18 13L20 13L20 12L21 12L21 11L20 11L20 10L22 10L22 11L25 11L25 10L24 10L24 9L23 9L23 10L22 10L22 9L20 9L20 10L19 10L19 9L18 9L18 10L17 10L17 9L13 9L13 10L12 10L12 9L11 9L11 8ZM6 9L6 10L7 10L7 9ZM10 9L10 11L11 11L11 9ZM14 10L14 12L13 12L13 11L12 11L12 13L14 13L14 14L10 14L10 16L11 16L11 17L12 17L12 18L13 18L13 17L12 17L12 15L14 15L14 14L15 14L15 13L18 13L18 12L15 12L15 11L16 11L16 10ZM18 10L18 11L19 11L19 12L20 12L20 11L19 11L19 10ZM26 11L26 12L22 12L22 13L26 13L26 12L28 12L28 11ZM9 12L9 13L7 13L7 14L8 14L8 15L7 15L7 16L8 16L8 15L9 15L9 13L11 13L11 12ZM14 12L14 13L15 13L15 12ZM19 17L19 18L20 18L20 17ZM14 18L14 20L13 20L13 19L12 19L12 21L18 21L18 20L19 20L19 19L18 19L18 18ZM10 19L10 21L11 21L11 19ZM17 19L17 20L18 20L18 19ZM21 21L21 24L24 24L24 21ZM25 21L25 24L27 24L27 22L28 22L28 21ZM22 22L22 23L23 23L23 22ZM16 24L16 25L18 25L18 24ZM26 25L26 27L25 27L25 28L27 28L27 25ZM9 26L9 28L10 28L10 26ZM14 27L14 28L19 28L19 27ZM0 0L0 7L7 7L7 0ZM1 1L1 6L6 6L6 1ZM2 2L2 5L5 5L5 2ZM22 0L22 7L29 7L29 0ZM23 1L23 6L28 6L28 1ZM24 2L24 5L27 5L27 2ZM0 22L0 29L7 29L7 22ZM1 23L1 28L6 28L6 23ZM2 24L2 27L5 27L5 24Z" fill="#000000"/></g></g></svg>
