<svg xmlns="http://www.w3.org/2000/svg" xmlns:xlink="http://www.w3.org/1999/xlink" width="74.892" height="62.354" viewBox="0 0 74.892 62.354"><defs><linearGradient id="a" x1="0.5" y1="1" x2="0.5" gradientUnits="objectBoundingBox"><stop offset="0" stop-color="#25f2b7"/><stop offset="1" stop-color="#0aed9b"/></linearGradient></defs><g transform="translate(-441.283 -138.754)"><path d="M0,0H22.046a3.615,3.615,0,0,1,3.615,3.615V9.363a0,0,0,0,1,0,0H0a0,0,0,0,1,0,0V0A0,0,0,0,1,0,0Z" transform="translate(495.46 199.812) rotate(-90)" fill="#b0d6ff"/><rect width="11.35" height="11.35" transform="translate(464.835 188.361) rotate(90)" fill="#b0d6ff"/><path d="M4.688,0h11a0,0,0,0,1,0,0V29.89a0,0,0,0,1,0,0H0a0,0,0,0,1,0,0V4.688A4.688,4.688,0,0,1,4.688,0Z" transform="translate(470.751 170.048)" fill="url(#a)"/><path d="M461.456,148.843l23.466,8.129,26.07-15.718" transform="translate(-5.44 -0.674)" fill="none" stroke="#2c59d9" stroke-miterlimit="10" stroke-width="1"/><circle cx="2.096" cy="2.096" r="2.096" transform="translate(453.921 146.073)" fill="#2c59d9"/><circle cx="2.137" cy="2.137" r="2.137" transform="translate(477.187 154.161)" fill="#2c59d9"/><circle cx="2.159" cy="2.159" r="2.159" transform="translate(503.188 138.754)" fill="#2c59d9"/><path d="M5.034,0h9.827a0,0,0,0,1,0,0V36.238a0,0,0,0,1,0,0H0a0,0,0,0,1,0,0V5.034A5.034,5.034,0,0,1,5.034,0Z" transform="translate(451.73 163.7)" fill="none" stroke="#2c59d9" stroke-linejoin="round" stroke-width="2"/><path d="M0,0H9.031a5.83,5.83,0,0,1,5.83,5.83V43.641a0,0,0,0,1,0,0H0a0,0,0,0,1,0,0V0A0,0,0,0,1,0,0Z" transform="translate(490.692 156.298)" fill="none" stroke="#2c59d9" stroke-linejoin="round" stroke-width="2"/><line x2="74.892" transform="translate(441.283 200.108)" fill="none" stroke="#2c59d9" stroke-miterlimit="10" stroke-width="2"/></g><script xmlns=""/><style xmlns="">@font-face{
    font-family: 'bnazanin';
    src:'bnazanin.ttf';
}
.dideo-tooltip {
    position: relative;
    display: inline-block;
    font-family: 'bnazanin';
    margin-bottom: 2px;
}

.dideo-tooltip .tooltiptext {
    visibility: hidden;
    font-family: 'bnazanin';
    width: 120px;
    font-size: 13px;
    background-color: black;
    color: #fff;
    text-align: center;
    border-radius: 6px;
    padding: 5px 0;
    position: absolute;
    z-index: 1;
    top: 0px;
    left: 110%;
}
.dideo-img{
    width: 25px;
    height: 25px;
    margin-bottom: -7px;
    filter: drop-shadow(0px 0px 2px #adadad);
    webkit:filter: drop-shadow(0px 0px 2px #adadad);
}
.dideo-tooltip .tooltiptext::after {
    content: "";
    position: absolute;
    top: 50%;
    right: 100%;
    margin-top: -5px;
    border-width: 5px;
    border-style: solid;
    border-color: transparent black transparent transparent;
}
.dideo-tooltip:hover .tooltiptext {
    visibility: visible;
}
.srg{
    min-width: 750px;
}</style></svg>